<?xml version="1.0" standalone="no"?>
<!DOCTYPE svg PUBLIC "-//W3C//DTD SVG 20010904//EN"
 "http://www.w3.org/TR/2001/REC-SVG-20010904/DTD/svg10.dtd">
<svg version="1.0" xmlns="http://www.w3.org/2000/svg"
 width="640.000000pt" height="626.000000pt" viewBox="0 0 640.000000 626.000000"
 preserveAspectRatio="xMidYMid meet">

<g transform="translate(0.000000,626.000000) scale(0.100000,-0.100000)"
fill="#000000" stroke="none">
<path d="M2295 6250 c-182 -27 -380 -137 -516 -288 -194 -216 -314 -523 -339
-860 -21 -290 35 -582 156 -823 24 -49 44 -90 44 -92 0 -9 -171 -108 -295
-173 -320 -165 -436 -242 -538 -355 -71 -78 -107 -139 -143 -244 -25 -72 -28
-93 -27 -215 0 -146 9 -196 53 -305 73 -183 235 -361 469 -516 46 -30 77 -57
72 -62 -5 -5 -42 2 -85 17 -211 73 -381 32 -547 -133 -139 -139 -184 -255
-183 -476 1 -146 16 -226 70 -380 19 -55 37 -107 40 -115 2 -8 -11 -32 -29
-52 -27 -32 -44 -41 -112 -58 -168 -43 -306 -135 -357 -238 -32 -65 -31 -167
2 -235 29 -61 99 -133 153 -157 61 -28 156 -26 232 5 33 14 61 25 61 25 1 0 1
-28 1 -62 -2 -88 18 -150 66 -205 102 -115 264 -125 380 -23 22 19 37 27 37
19 0 -29 50 -118 85 -154 133 -132 388 -123 517 19 106 116 85 357 -48 538
-35 47 -36 50 -18 63 26 20 29 19 93 -19 330 -199 882 -384 1346 -452 164 -24
486 -24 645 0 441 67 897 230 1241 442 82 51 109 59 109 33 0 -5 -18 -33 -40
-62 -136 -181 -159 -426 -52 -543 129 -142 384 -151 517 -19 35 36 85 125 85
154 0 8 15 0 37 -19 116 -102 278 -92 380 23 48 55 68 117 66 204 0 35 0 63 1
63 0 0 28 -11 61 -25 118 -48 231 -29 314 54 64 64 95 133 95 216 1 117 -60
208 -188 280 -55 31 -178 75 -248 90 -15 3 -36 18 -47 33 l-20 28 35 87 c88
220 117 460 75 627 -30 122 -74 202 -156 285 -183 186 -407 224 -629 107 -39
-20 -94 -56 -122 -78 -50 -41 -51 -41 -74 -24 l-24 18 55 27 c176 90 375 232
502 361 201 202 287 401 287 661 0 186 -46 305 -169 435 -85 91 -190 163 -430
298 -129 72 -243 141 -289 175 -1 1 13 42 33 90 59 146 78 263 72 440 -4 119
-11 169 -31 243 -53 191 -142 338 -286 475 -256 243 -616 311 -932 177 -153
-65 -322 -205 -407 -338 -19 -28 -36 -51 -38 -49 -1 2 -10 41 -19 88 -115 610
-568 1020 -1049 949z m275 -229 c237 -74 452 -330 539 -643 49 -176 66 -426
41 -603 -56 -393 -287 -730 -567 -826 -97 -34 -259 -34 -355 -1 -134 46 -287
173 -379 312 -133 202 -200 445 -199 727 0 201 28 353 94 518 164 406 501 617
826 516z m1769 -597 c226 -72 408 -271 481 -525 33 -113 38 -297 11 -417 -38
-172 -113 -305 -237 -421 -85 -79 -195 -140 -304 -167 -96 -24 -272 -15 -362
18 -232 87 -395 272 -470 535 -29 102 -32 323 -5 422 41 151 100 260 196 363
187 200 443 271 690 192z m-1059 -1119 c21 -67 90 -196 140 -265 196 -265 513
-409 817 -370 200 25 358 100 507 241 l92 87 74 -50 c41 -27 125 -76 185 -110
335 -186 439 -267 497 -386 28 -55 33 -78 36 -157 9 -206 -61 -375 -223 -538
-353 -356 -1055 -641 -1845 -749 -142 -19 -525 -16 -685 6 -902 122 -1694 477
-1944 871 -97 153 -114 365 -42 520 63 135 184 229 529 409 111 57 233 125
272 150 39 25 73 46 76 46 4 0 41 -33 84 -72 163 -154 344 -228 556 -228 157
0 319 50 450 141 133 91 273 257 352 416 26 51 49 89 53 85 4 -4 12 -25 19
-47z m-1729 -2144 c200 -93 481 -189 744 -255 388 -96 687 -132 1023 -123 258
6 475 35 778 104 20 4 21 -1 27 -81 11 -140 51 -293 95 -366 27 -44 96 -111
134 -131 69 -35 111 -35 183 0 80 40 163 114 197 178 48 89 61 154 55 282 -5
109 -12 143 -63 303 -4 10 1 18 14 22 23 8 249 -118 343 -190 104 -80 157
-173 166 -289 18 -250 -142 -486 -482 -709 -388 -256 -873 -423 -1350 -467
-438 -40 -1065 108 -1590 375 -460 234 -674 444 -721 708 -30 166 9 317 119
468 46 62 199 220 214 220 6 0 57 -22 114 -49z m-498 -20 c4 -4 -9 -32 -29
-62 -47 -70 -99 -178 -121 -254 -12 -44 -17 -100 -18 -212 l-1 -152 -89 -45
c-50 -25 -93 -42 -97 -38 -14 15 -58 187 -69 270 -22 172 19 309 120 405 58
56 104 85 156 98 34 9 136 2 148 -10z m4528 -10 c109 -52 193 -162 220 -289
15 -75 7 -215 -21 -320 -18 -72 -47 -158 -56 -171 -2 -2 -15 6 -31 17 -44 31
-144 79 -191 91 l-42 12 0 107 c0 59 -5 127 -11 152 -18 79 -78 187 -145 259
-35 38 -64 72 -64 75 0 12 87 60 140 78 67 22 139 18 201 -11z m-935 -173 c35
-109 44 -268 20 -350 -22 -78 -79 -146 -154 -186 -74 -40 -98 -36 -157 22 -72
72 -130 269 -123 417 l3 62 64 18 c48 14 68 16 78 7 13 -10 52 -131 69 -213 7
-30 14 -40 29 -40 15 0 21 8 23 29 4 36 -25 160 -50 209 -11 22 -17 42 -14 45
8 7 157 60 173 61 7 1 24 -36 39 -81z m826 -715 c95 -37 187 -111 319 -258 33
-37 45 -42 135 -63 133 -30 225 -79 255 -134 19 -35 -31 -108 -74 -108 -12 0
-65 25 -117 56 -192 112 -265 137 -319 110 -32 -17 -61 -61 -61 -93 0 -10 21
-64 46 -121 57 -127 69 -215 36 -246 -37 -33 -65 -15 -143 92 -95 129 -145
180 -185 188 -41 8 -66 0 -98 -33 -26 -26 -26 -27 -24 -172 2 -133 0 -150 -20
-188 -17 -33 -30 -44 -59 -52 -51 -14 -77 -14 -118 3 -107 45 -82 176 75 386
128 172 152 245 110 339 l-20 43 36 40 c40 45 130 179 139 208 8 24 31 25 87
3z m-4468 -52 c20 -32 68 -93 107 -135 l71 -76 -16 -40 c-36 -90 -11 -162 114
-330 157 -210 182 -341 75 -386 -41 -17 -67 -17 -118 -3 -29 8 -42 19 -59 52
-20 38 -22 55 -20 188 2 145 2 146 -24 172 -32 33 -57 41 -98 33 -40 -8 -90
-59 -185 -188 -78 -107 -106 -125 -143 -92 -33 31 -21 119 36 246 25 57 46
111 46 121 0 32 -29 76 -61 93 -54 27 -127 2 -319 -110 -52 -31 -105 -56 -117
-56 -43 0 -93 73 -74 108 29 54 123 104 253 134 51 12 100 26 109 32 9 6 39
39 68 74 87 105 245 220 302 222 9 0 32 -26 53 -59z"/>
<path d="M2160 5455 c-75 -22 -130 -56 -183 -115 -64 -71 -90 -144 -91 -247 0
-74 4 -88 37 -157 42 -85 92 -134 177 -175 48 -23 68 -26 155 -26 89 0 106 3
157 28 123 60 198 173 205 306 3 42 0 94 -5 116 -9 40 -14 37 -26 -18 -8 -36
-67 -100 -110 -121 -69 -33 -181 -13 -227 40 -45 52 -62 138 -39 198 19 51 80
105 137 122 30 9 61 13 69 10 7 -3 14 -2 14 2 0 14 -93 42 -155 47 -38 3 -80
-1 -115 -10z"/>
<path d="M3783 5097 c-35 -13 -56 -30 -33 -27 46 7 74 -3 112 -38 35 -33 41
-46 45 -88 11 -116 -90 -187 -200 -140 -41 17 -63 42 -81 92 l-14 39 -7 -38
c-25 -131 40 -255 164 -310 53 -23 167 -20 221 6 170 83 205 313 68 444 -69
66 -188 92 -275 60z"/>
<path d="M3343 3660 c-104 -69 -117 -302 -23 -401 31 -33 43 -39 77 -39 84 0
143 90 143 221 0 93 -20 156 -64 198 -43 42 -90 49 -133 21z"/>
<path d="M2856 3638 c-47 -35 -76 -110 -76 -199 0 -231 167 -326 255 -145 53
109 30 276 -47 341 -37 32 -92 33 -132 3z"/>
</g>
</svg>
